<svg width="144" height="89" viewBox="0 0 144 89" fill="none" xmlns="http://www.w3.org/2000/svg">
<g clip-path="url(#clip0_163_271)">
<path d="M5.13735 83.0926C4.86087 82.5568 4.46544 82.1364 3.95749 81.8444C3.45276 81.5556 2.86765 81.408 2.21825 81.408H0V88.9006H0.22504H2.17967C2.84837 88.8942 3.44633 88.7466 3.95106 88.461C4.46544 88.1722 4.86408 87.7551 5.14056 87.216C5.41382 86.6865 5.54885 86.064 5.54885 85.3677V84.9152C5.54885 84.2382 5.41061 83.6253 5.13735 83.0926ZM4.18253 84.9345V85.3452C4.18253 86.1089 3.99929 86.6994 3.63922 87.1005C3.28237 87.4983 2.78728 87.6941 2.13145 87.6941H1.37917V82.6177H2.23754C2.86765 82.6241 3.33702 82.8199 3.67137 83.2146C4.01215 83.6125 4.18253 84.1933 4.18253 84.9345ZM17.3184 87.6941H20.8709V88.9006H15.9393V81.408H20.8226V82.6145H17.3184V84.4371H20.379V85.6436H17.3184V87.6941ZM35.431 81.4112H36.9323L34.1482 88.9038H33.0102L30.2325 81.4112H31.7275L33.576 86.7603L35.431 81.4112ZM48.1393 87.6941H51.6917V88.9006H46.7601V81.408H51.6435V82.6145H48.1393V84.4371H51.1999V85.6436H48.1393V87.6941ZM63.217 87.6941H66.5637V88.9006H61.8346V81.408H63.217V87.6941ZM80.7187 81.7578C80.2558 81.4625 79.7124 81.3149 79.1048 81.3149C78.5069 81.3149 77.9668 81.4658 77.5038 81.7642C77.0377 82.0626 76.6744 82.4958 76.4204 83.0541C76.1729 83.5996 76.0475 84.235 76.0475 84.9409V85.4511C76.0539 86.1442 76.1825 86.7635 76.4333 87.2994C76.6873 87.8417 77.0538 88.2653 77.5167 88.5573C77.9828 88.8525 78.5197 89.0001 79.1145 89.0001C79.7221 89.0001 80.2654 88.8525 80.7283 88.5573C81.1913 88.2621 81.5513 87.8321 81.8021 87.2834C82.0464 86.7443 82.1718 86.1057 82.1718 85.3837V84.9377C82.1718 84.2221 82.0464 83.5836 81.8021 83.0381C81.5481 82.483 81.1849 82.053 80.7187 81.7578ZM80.7926 84.9281V85.4511C80.783 86.2148 80.6287 86.802 80.3297 87.1967C80.0436 87.5786 79.6449 87.7647 79.1145 87.7647C78.5872 87.7647 78.1854 87.5689 77.8864 87.1614C77.5746 86.7411 77.417 86.1442 77.417 85.3869V84.8703C77.4267 84.1291 77.5874 83.5483 77.8928 83.1408C78.1886 82.7493 78.584 82.56 79.1016 82.56C79.6353 82.56 80.0404 82.7493 80.3329 83.1408C80.6383 83.5451 80.7926 84.1483 80.7926 84.9281ZM97.3363 82.0594C96.8573 81.6294 96.1982 81.4112 95.372 81.4112H92.5462V88.9038H93.9253V86.1442H95.3656C96.2143 86.1442 96.883 85.9389 97.3524 85.5378C97.8314 85.127 98.0725 84.5366 98.0725 83.7889C98.0693 83.0766 97.8217 82.4926 97.3363 82.0594ZM96.6901 83.7954C96.6901 84.174 96.584 84.4532 96.3686 84.6425C96.1468 84.8382 95.8125 84.9377 95.372 84.9377H93.9221V82.6177H95.4202C95.8285 82.6274 96.1339 82.7332 96.3622 82.9482C96.5808 83.1568 96.6901 83.4328 96.6901 83.7954ZM109.617 87.6941H113.169V88.9006H108.238V81.408H113.121V82.6145H109.617V84.4371H112.678V85.6436H109.617V87.6941ZM128.17 85.0308C128.434 84.6682 128.569 84.2382 128.569 83.7537C128.569 82.9964 128.324 82.4091 127.849 82.0048C127.382 81.6102 126.714 81.4112 125.868 81.4112H123.306V88.9038H124.692V86.0544H125.99L127.521 88.9038H128.877V88.5637L127.312 85.7367C127.665 85.5634 127.955 85.3292 128.17 85.0308ZM127.186 83.7504C127.186 84.0874 127.077 84.3441 126.852 84.543C126.624 84.7452 126.302 84.8447 125.897 84.8447H124.692V82.6177H125.891C126.325 82.6209 126.653 82.7204 126.871 82.9161C127.08 83.1023 127.186 83.3782 127.186 83.7504ZM144 86.8887C144 87.5304 143.746 88.0503 143.245 88.4385C142.759 88.8108 142.113 89.0001 141.319 89.0001C140.804 89.0001 140.319 88.9006 139.869 88.7017C139.412 88.4995 139.056 88.2171 138.805 87.8642C138.551 87.5048 138.422 87.0908 138.422 86.6384V86.4138H139.808V86.6384C139.808 86.9946 139.933 87.2673 140.194 87.4727C140.467 87.6877 140.846 87.7968 141.319 87.7968C141.756 87.7968 142.09 87.7101 142.312 87.5433C142.518 87.386 142.618 87.1775 142.618 86.9047C142.618 86.6288 142.528 86.4266 142.341 86.279C142.19 86.1603 141.849 85.9742 141.097 85.7592C140.255 85.5185 139.657 85.2233 139.265 84.8639C138.853 84.4885 138.647 84.0168 138.647 83.4648C138.647 82.8423 138.898 82.3225 139.396 81.915C139.879 81.5203 140.512 81.3214 141.271 81.3214C141.788 81.3214 142.258 81.424 142.666 81.6262C143.081 81.8316 143.408 82.1171 143.637 82.4797C143.868 82.8456 143.984 83.2467 143.984 83.6798V83.9045H142.598V83.6798C142.598 83.3172 142.489 83.0413 142.264 82.8391C142.036 82.6338 141.701 82.5311 141.267 82.5311C140.862 82.5311 140.547 82.6177 140.332 82.7846C140.129 82.9418 140.033 83.16 140.033 83.4488C140.033 83.667 140.126 83.8499 140.316 84.0039C140.538 84.1836 140.927 84.3537 141.48 84.5077C142.081 84.6746 142.563 84.8671 142.91 85.0757C143.273 85.2939 143.547 85.5538 143.724 85.8458C143.91 86.1378 144 86.4908 144 86.8887Z" fill="url(#paint0_linear_163_271)"/>
<path d="M76.5201 15.3992C68.245 8.02528 62.8794 3.24412 59.237 0H59.0795V9.77088C62.7251 13.0182 68.1229 17.8282 76.5201 25.3112V15.3992Z" fill="url(#paint1_linear_163_271)"/>
<path d="M42.8991 63.1369C43.0727 63.092 43.2431 63.0535 43.4199 63.0054C43.7542 62.9188 44.0918 62.8385 44.4326 62.7551C44.439 62.7551 44.4454 62.7519 44.4519 62.7519C45.4163 62.5209 46.4065 62.3059 47.4128 62.0973C47.6282 62.0524 47.8468 62.0107 48.0654 61.9657C48.9913 61.7796 49.93 61.6063 50.888 61.4427C50.9813 61.4266 51.0713 61.4106 51.1645 61.3946C52.2865 61.2052 53.4342 61.0352 54.598 60.8811C55.8871 58.8082 56.543 56.3856 56.543 53.61C56.543 50.2567 55.6203 47.3912 53.7782 45.0103C51.9361 42.6326 49.3352 40.8196 45.9757 39.5745C48.5765 38.2782 50.5408 36.5743 51.8686 34.4629C53.1963 32.3547 53.8618 29.9737 53.8618 27.3232C53.8618 22.8341 51.9232 19.2402 48.0525 16.5352C44.1722 13.8365 38.4433 12.4824 30.8594 12.4824H0.462952V69.2658H25.6321C29.3581 67.5363 33.9811 65.6912 39.4078 64.0996C40.5394 63.7659 41.7 63.4418 42.8991 63.1369ZM19.3181 25.8664H28.2586C32.4315 25.8664 34.518 27.2751 34.518 30.086C34.518 32.9002 32.4315 34.3056 28.2586 34.3056H19.3181V25.8664ZM30.8594 55.8818H19.3181V46.958H30.8594C35.087 46.958 37.1992 48.4469 37.1992 51.4215C37.1992 54.3929 35.0838 55.8818 30.8594 55.8818Z" fill="url(#paint2_linear_163_271)"/>
<path d="M143.463 27.0921V12.6523H97.2173V63.9904C97.436 64.0513 97.6546 64.1091 97.87 64.1733C98.1947 64.2792 98.5001 64.3754 98.8216 64.4781C99.7442 64.7733 100.664 65.0717 101.551 65.3573C101.715 65.4087 101.882 65.4632 102.046 65.5178C102.718 65.7424 103.377 65.9638 104.023 66.1852C104.66 66.4419 105.283 66.6954 105.897 66.9425C107.119 67.4431 108.289 67.918 109.402 68.3768C109.681 68.4923 109.955 68.6079 110.225 68.7234C110.488 68.8549 110.749 68.9865 111.009 69.1149C111.523 69.3716 112.022 69.6219 112.507 69.8625C113.941 70.5845 115.243 71.2134 116.352 71.8359C116.41 70.347 116.4 51.2642 116.4 51.2642H140.133V36.8244H116.4V27.0921H143.463Z" fill="url(#paint3_linear_163_271)"/>
<path d="M63.3295 60.1815C65.0205 60.1334 66.718 60.0884 68.4122 60.0435C70.1032 60.0852 71.7942 60.1334 73.4788 60.1751C74.3211 60.2039 75.1634 60.2039 75.9993 60.2457C76.8351 60.313 77.6485 60.4574 78.4747 60.5216C78.613 60.5345 78.7737 60.5665 78.9119 60.5794C78.9152 60.5794 78.9184 60.5794 78.9216 60.5794C79.7574 60.65 80.6222 60.7366 81.5128 60.8361C81.6253 60.8489 81.7314 60.8585 81.8439 60.8714C82.638 60.9612 83.4577 61.0703 84.2904 61.1858C84.5058 61.2147 84.7148 61.2404 84.9334 61.2725C85.7082 61.3848 86.5119 61.5228 87.3188 61.664C87.6049 61.7121 87.8782 61.7506 88.1675 61.8052C89.2027 61.9945 90.27 62.2127 91.3567 62.4533C91.4177 62.4662 91.4724 62.4758 91.5335 62.4886V62.5464C91.9675 62.6491 92.3918 62.7582 92.8226 62.8641C93.0187 62.9122 93.2181 62.9603 93.411 63.0085C93.951 63.1497 94.4879 63.2812 95.0216 63.416V50.6673H76.5233V28.7895C68.2482 21.4157 62.8859 16.6345 59.2402 13.3904H59.0827L59.0602 60.3933C59.6324 60.3483 60.2079 60.3034 60.7833 60.2553C61.6192 60.2136 62.4776 60.2104 63.3295 60.1815Z" fill="url(#paint4_linear_163_271)"/>
<path d="M112.504 72.8082C112.022 72.5676 111.52 72.3173 111.006 72.0606C110.749 71.9322 110.485 71.8007 110.221 71.6691C109.951 71.5536 109.678 71.4381 109.398 71.3225C108.286 70.8669 107.116 70.3888 105.894 69.8882C105.283 69.6411 104.657 69.3876 104.02 69.1309C103.374 68.9095 102.715 68.6881 102.043 68.4635C101.882 68.4121 101.712 68.3576 101.548 68.303C100.66 68.0175 99.7378 67.7222 98.8183 67.4238C98.4969 67.3211 98.1947 67.2217 97.8668 67.119C96.4265 66.6858 94.9251 66.3553 93.3981 65.9574C93.202 65.9093 93.0059 65.8611 92.8098 65.813C92.3822 65.7039 91.9546 65.598 91.5206 65.4953V65.4376C91.4595 65.4247 91.4049 65.4151 91.3438 65.4023C90.2572 65.1616 89.1931 64.9466 88.1547 64.7541C87.8653 64.6995 87.5921 64.661 87.3059 64.6129C86.499 64.4717 85.6953 64.3369 84.9205 64.2214C84.7019 64.1893 84.4961 64.1669 84.2775 64.1348C83.4449 64.0193 82.6251 63.9102 81.831 63.8203C81.7185 63.8075 81.6124 63.7978 81.4999 63.785C80.6126 63.6887 79.7446 63.6021 78.9087 63.5283C78.9055 63.5283 78.9023 63.5283 78.8991 63.5283C78.7608 63.5155 78.6001 63.4834 78.4619 63.4705C77.6324 63.4064 76.8223 63.262 75.9864 63.1946C75.1506 63.1529 74.3083 63.1561 73.466 63.124C71.7814 63.0791 70.0904 63.0341 68.3993 62.9924C66.7019 63.0374 65.0077 63.0823 63.3167 63.1304C62.4647 63.1593 61.6096 63.1625 60.7705 63.2042C59.941 63.2716 59.1148 63.3358 58.2886 63.4032C58.2693 63.4064 58.25 63.4064 58.2275 63.4064C58.234 63.4096 58.234 63.4096 58.2436 63.4128C55.7939 63.647 53.4245 63.9615 51.1452 64.3433C51.052 64.3594 50.9619 64.3754 50.8687 64.3915C49.9107 64.5551 48.9719 64.7284 48.0461 64.9145C47.8275 64.9594 47.6088 65.0012 47.3935 65.0461C46.3904 65.2547 45.397 65.4696 44.4326 65.7007C44.4261 65.7007 44.4197 65.7039 44.4133 65.7039C44.0757 65.7873 43.7349 65.8707 43.4006 65.9542C43.227 65.9991 43.0566 66.0408 42.8798 66.0857C41.6806 66.3906 40.5201 66.7147 39.3852 67.0484C32.5922 69.0411 27.0466 71.4349 22.9637 73.4949C22.6551 73.6522 22.3272 73.8094 22.0346 73.9634C21.2888 74.3517 20.6008 74.7239 19.9675 75.0737C19.7682 75.1924 19.5592 75.3111 19.3727 75.4331C16.7044 77.0471 15.2127 78.0065 15.2127 78.0065C15.2127 78.0065 16.8491 77.3712 19.6589 76.1968C21.0412 75.5518 22.8126 75.0352 24.7866 74.3035C26.7508 73.5398 29.0366 72.9334 31.4992 72.1889C31.811 72.0959 32.1389 71.9996 32.4604 71.9033C32.544 71.8777 32.6308 71.852 32.7144 71.8263C32.9362 71.7589 33.1548 71.6948 33.3831 71.6274C33.8235 71.5247 34.2736 71.422 34.7205 71.3161C34.9359 71.2648 35.1481 71.2167 35.3667 71.1653C35.7942 71.0626 36.2347 70.9567 36.6719 70.8508C37.167 70.7321 37.6717 70.6102 38.1765 70.4882C38.6233 70.3791 39.067 70.2733 39.5203 70.1642C39.8578 70.0871 40.205 70.0294 40.549 69.962C41.3045 69.8144 42.0696 69.67 42.8476 69.5352C43.2141 69.4711 43.5774 69.4101 43.9471 69.3395C44.4936 69.2464 45.0434 69.1405 45.5963 69.0379C45.9018 68.9801 46.2104 68.9256 46.519 68.8742C47.1941 68.7587 47.8789 68.6528 48.5733 68.5854C49.2098 68.502 49.8657 68.4153 50.5087 68.3319H50.5119C51.4635 68.2068 52.4054 68.0848 53.3731 67.9597C54.9934 67.7896 56.6297 67.7062 58.2822 67.5586C59.1052 67.4944 59.9314 67.427 60.7641 67.3596C61.6031 67.3179 62.4615 67.3147 63.3102 67.2858C65.0012 67.2377 66.6987 67.1928 68.3929 67.1479C70.0839 67.1896 71.7749 67.2377 73.4595 67.2794C74.3018 67.3083 75.1441 67.3083 75.98 67.35C76.8158 67.4174 77.6517 67.4848 78.4779 67.549C80.14 67.6966 81.7924 67.78 83.416 67.9501C85.0362 68.1618 86.6405 68.3736 88.2157 68.5758C89.8007 68.7298 91.3309 69.0667 92.8419 69.3299C94.3465 69.6154 95.8382 69.8304 97.2656 70.1545C98.6898 70.4979 100.075 70.8348 101.419 71.1557C102.091 71.3129 102.753 71.4637 103.406 71.6178C104.046 71.8071 104.676 71.9964 105.29 72.1793C107.752 72.9237 110.041 73.5302 111.996 74.2939C113.964 75.0255 115.729 75.5357 117.124 76.1871C119.943 77.3712 121.573 78.0033 121.573 78.0033C121.573 78.0033 120.072 77.0407 117.416 75.4331C116.13 74.5827 114.436 73.7805 112.504 72.8082Z" fill="#D19839"/>
</g>
<defs>
<linearGradient id="paint0_linear_163_271" x1="0" y1="85.156" x2="144" y2="85.156" gradientUnits="userSpaceOnUse">
<stop offset="0.0419" stop-color="#D38D29"/>
<stop offset="0.0771" stop-color="#DBA042"/>
<stop offset="0.1662" stop-color="#EECD7B"/>
<stop offset="0.2322" stop-color="#FAE99F"/>
<stop offset="0.2674" stop-color="#FFF4AD"/>
<stop offset="0.2963" stop-color="#F5DC8E"/>
<stop offset="0.3524" stop-color="#E3B158"/>
<stop offset="0.3944" stop-color="#D79736"/>
<stop offset="0.4171" stop-color="#D38D29"/>
<stop offset="0.7594" stop-color="#D4A42A"/>
<stop offset="0.771" stop-color="#D8A62C"/>
<stop offset="0.8489" stop-color="#ECB437"/>
<stop offset="0.9258" stop-color="#F9BC3E"/>
<stop offset="1" stop-color="#FDBF40"/>
</linearGradient>
<linearGradient id="paint1_linear_163_271" x1="57.8273" y1="12.6559" x2="76.5185" y2="12.6559" gradientUnits="userSpaceOnUse">
<stop offset="0.0419" stop-color="#D38D29"/>
<stop offset="0.0771" stop-color="#DBA042"/>
<stop offset="0.1662" stop-color="#EECD7B"/>
<stop offset="0.2322" stop-color="#FAE99F"/>
<stop offset="0.2674" stop-color="#FFF4AD"/>
<stop offset="0.2963" stop-color="#F5DC8E"/>
<stop offset="0.3524" stop-color="#E3B158"/>
<stop offset="0.3944" stop-color="#D79736"/>
<stop offset="0.4171" stop-color="#D38D29"/>
<stop offset="0.7594" stop-color="#D4A42A"/>
<stop offset="0.771" stop-color="#D8A62C"/>
<stop offset="0.8489" stop-color="#ECB437"/>
<stop offset="0.9258" stop-color="#F9BC3E"/>
<stop offset="1" stop-color="#FDBF40"/>
</linearGradient>
<linearGradient id="paint2_linear_163_271" x1="0.46353" y1="40.8743" x2="56.5404" y2="40.8743" gradientUnits="userSpaceOnUse">
<stop offset="0.0419" stop-color="#D38D29"/>
<stop offset="0.0771" stop-color="#DBA042"/>
<stop offset="0.1662" stop-color="#EECD7B"/>
<stop offset="0.2322" stop-color="#FAE99F"/>
<stop offset="0.2674" stop-color="#FFF4AD"/>
<stop offset="0.2963" stop-color="#F5DC8E"/>
<stop offset="0.3524" stop-color="#E3B158"/>
<stop offset="0.3944" stop-color="#D79736"/>
<stop offset="0.4171" stop-color="#D38D29"/>
<stop offset="0.7594" stop-color="#D4A42A"/>
<stop offset="0.771" stop-color="#D8A62C"/>
<stop offset="0.8489" stop-color="#ECB437"/>
<stop offset="0.9258" stop-color="#F9BC3E"/>
<stop offset="1" stop-color="#FDBF40"/>
</linearGradient>
<linearGradient id="paint3_linear_163_271" x1="97.2189" y1="42.2439" x2="143.462" y2="42.2439" gradientUnits="userSpaceOnUse">
<stop offset="0.0419" stop-color="#D38D29"/>
<stop offset="0.0771" stop-color="#DBA042"/>
<stop offset="0.1662" stop-color="#EECD7B"/>
<stop offset="0.2322" stop-color="#FAE99F"/>
<stop offset="0.2674" stop-color="#FFF4AD"/>
<stop offset="0.2963" stop-color="#F5DC8E"/>
<stop offset="0.3524" stop-color="#E3B158"/>
<stop offset="0.3944" stop-color="#D79736"/>
<stop offset="0.4171" stop-color="#D38D29"/>
<stop offset="0.7594" stop-color="#D4A42A"/>
<stop offset="0.771" stop-color="#D8A62C"/>
<stop offset="0.8489" stop-color="#ECB437"/>
<stop offset="0.9258" stop-color="#F9BC3E"/>
<stop offset="1" stop-color="#FDBF40"/>
</linearGradient>
<linearGradient id="paint4_linear_163_271" x1="46.1626" y1="38.4051" x2="95.0155" y2="38.4051" gradientUnits="userSpaceOnUse">
<stop offset="0.0419" stop-color="#D38D29"/>
<stop offset="0.0771" stop-color="#DBA042"/>
<stop offset="0.1662" stop-color="#EECD7B"/>
<stop offset="0.2322" stop-color="#FAE99F"/>
<stop offset="0.2674" stop-color="#FFF4AD"/>
<stop offset="0.2963" stop-color="#F5DC8E"/>
<stop offset="0.3524" stop-color="#E3B158"/>
<stop offset="0.3944" stop-color="#D79736"/>
<stop offset="0.4171" stop-color="#D38D29"/>
<stop offset="0.7594" stop-color="#D4A42A"/>
<stop offset="0.771" stop-color="#D8A62C"/>
<stop offset="0.8489" stop-color="#ECB437"/>
<stop offset="0.9258" stop-color="#F9BC3E"/>
<stop offset="1" stop-color="#FDBF40"/>
</linearGradient>
<clipPath id="clip0_163_271">
<rect width="144" height="89" fill="white"/>
</clipPath>
</defs>
</svg>
