<svg width="24" height="24" viewBox="0 0 24 24" fill="none" xmlns="http://www.w3.org/2000/svg">
<path d="M0 12C0 5.37258 5.37258 0 12 0C18.6274 0 24 5.37258 24 12C24 18.6274 18.6274 24 12 24C5.37258 24 0 18.6274 0 12Z" fill="#ECFDF5"/>
<g clip-path="url(#clip0_28_632)">
<path d="M10.0002 7.33331H8.66683C8.31321 7.33331 7.97407 7.47379 7.72402 7.72384C7.47397 7.97389 7.3335 8.31302 7.3335 8.66665V16.6666C7.3335 17.0203 7.47397 17.3594 7.72402 17.6095C7.97407 17.8595 8.31321 18 8.66683 18H15.3335C15.6871 18 16.0263 17.8595 16.2763 17.6095C16.5264 17.3594 16.6668 17.0203 16.6668 16.6666V8.66665C16.6668 8.31302 16.5264 7.97389 16.2763 7.72384C16.0263 7.47379 15.6871 7.33331 15.3335 7.33331H14.0002" stroke="#10B981" stroke-width="1.5" stroke-linecap="round" stroke-linejoin="round"/>
<path d="M10 13.3333H10.0067M10 15.3333H10.0067M12 14.6667L12.6667 15.3333L14.6667 13.3333M10 7.33333C10 6.97971 10.1405 6.64057 10.3905 6.39052C10.6406 6.14048 10.9797 6 11.3333 6H12.6667C13.0203 6 13.3594 6.14048 13.6095 6.39052C13.8595 6.64057 14 6.97971 14 7.33333C14 7.68696 13.8595 8.02609 13.6095 8.27614C13.3594 8.52619 13.0203 8.66667 12.6667 8.66667H11.3333C10.9797 8.66667 10.6406 8.52619 10.3905 8.27614C10.1405 8.02609 10 7.68696 10 7.33333Z" stroke="#10B981" stroke-width="1.5" stroke-linecap="round" stroke-linejoin="round"/>
</g>
<defs>
<clipPath id="clip0_28_632">
<rect width="16" height="16" fill="white" transform="translate(4 4)"/>
</clipPath>
</defs>
</svg>
