<svg width="200" height="200" viewBox="0 0 200 200" fill="none" xmlns="http://www.w3.org/2000/svg">
<circle cx="100" cy="100" r="100" fill="#BDDAFF"/>
<path fill-rule="evenodd" clip-rule="evenodd" d="M68.83 137.77V100.85H85.44C92.48 102.11 99.52 105.93 106.56 110.36H119.46C125.3 110.71 128.36 116.63 122.68 120.52C118.16 123.84 112.19 123.65 106.07 123.1C101.85 122.89 101.67 128.56 106.07 128.58C107.6 128.7 109.26 128.34 110.71 128.34C118.34 128.33 124.63 126.87 128.48 120.84L130.41 116.33L149.6 106.82C159.2 103.66 166.03 113.7 158.95 120.69C145.05 130.8 130.8 139.12 116.22 145.84C105.63 152.28 95.04 152.06 84.46 145.84L68.83 137.77ZM81.41 50L152.82 69.13L142.87 106.26L71.46 87.13L81.41 50ZM115.08 67.22C121.12 68.84 124.7 75.03 123.08 81.07C121.46 87.11 115.27 90.69 109.23 89.07C103.19 87.45 99.61 81.26 101.23 75.22C102.84 69.18 109.03 65.6 115.08 67.22ZM91.83 58.85L139.31 71.57C138.5 74.59 140.3 77.72 143.33 78.52L139.4 93.2C136.38 92.39 133.25 94.19 132.45 97.22L84.96 84.5C85.77 81.48 83.97 78.36 80.94 77.55L84.87 62.87C87.89 63.68 91.02 61.88 91.83 58.85ZM39 97.3H63.83V141.48H39V97.3Z" fill="#213B8D"/>
</svg>
