<svg width="24" height="24" viewBox="0 0 24 24" fill="none" xmlns="http://www.w3.org/2000/svg">
<path d="M0 12C0 5.37258 5.37258 0 12 0C18.6274 0 24 5.37258 24 12C24 18.6274 18.6274 24 12 24C5.37258 24 0 18.6274 0 12Z" fill="#FFFBEB"/>
<g clip-path="url(#clip0_28_656)">
<g clip-path="url(#clip1_28_656)">
<path d="M11.9998 9.99998V12.6667M11.9998 14.6667H12.0065M10.9085 6.39398L5.50449 15.4167C5.39309 15.6096 5.33414 15.8283 5.3335 16.0511C5.33286 16.2739 5.39056 16.4929 5.50086 16.6865C5.61115 16.88 5.7702 17.0413 5.96219 17.1544C6.15417 17.2674 6.3724 17.3281 6.59516 17.3307H17.4045C17.6272 17.3281 17.8453 17.2673 18.0372 17.1543C18.2291 17.0413 18.388 16.8801 18.4983 16.6866C18.6086 16.4932 18.6663 16.2742 18.6658 16.0516C18.6652 15.8289 18.6064 15.6102 18.4952 15.4173L13.0912 6.39332C12.9775 6.20565 12.8173 6.05048 12.6261 5.94278C12.435 5.83508 12.2192 5.7785 11.9998 5.7785C11.7804 5.7785 11.5647 5.83508 11.3735 5.94278C11.1824 6.05048 11.0222 6.20565 10.9085 6.39332V6.39398Z" stroke="#F59E0B" stroke-width="1.5" stroke-linecap="round" stroke-linejoin="round"/>
</g>
</g>
<defs>
<clipPath id="clip0_28_656">
<rect width="16" height="16" fill="white" transform="translate(4 4)"/>
</clipPath>
<clipPath id="clip1_28_656">
<rect width="16" height="16" fill="white" transform="translate(4 4)"/>
</clipPath>
</defs>
</svg>
